<svg xmlns="http://www.w3.org/2000/svg" viewBox="0 0 64 64">
  <rect width="64" height="64" fill="#071f39" rx="14"/>
  <circle cx="32" cy="31" r="22" fill="none" stroke="#d8b56d" stroke-width="4"/>
  <path fill="#fff8ea" d="M20 43V19h12c5 0 8 3 8 7s-3 7-8 7h-5v10zm7-16h4c1.7 0 2.7-.8 2.7-2.1S32.7 23 31 23h-4z"/>
  <path fill="#d8b56d" d="M39 42c5.4 0 9-2.6 9-6.7 0-3.4-2.2-5.1-7-6.1-2.9-.6-3.7-1-3.7-2 0-.9.9-1.5 2.5-1.5 1.9 0 3.8.6 5.8 1.9l2.2-4.5a13.8 13.8 0 0 0-7.9-2.3c-5.1 0-8.5 2.7-8.5 6.7 0 3.7 2.6 5.2 7.2 6.1 2.8.6 3.5 1.1 3.5 1.9 0 1-.9 1.6-2.8 1.6-2.5 0-4.8-.8-7-2.4l-2.5 4.3A15 15 0 0 0 39 42z"/>
</svg>